<?xml version="1.0" encoding="UTF-8" standalone="no"?>
<!-- Created with Inkscape (http://www.inkscape.org/) -->

<svg
   version="1.1"
   id="svg1"
   width="716.74896"
   height="375.49203"
   viewBox="0 0 716.74896 375.49203"
   xml:space="preserve"
   xmlns="http://www.w3.org/2000/svg"
   xmlns:svg="http://www.w3.org/2000/svg"><defs
     id="defs1" /><g
     id="g1"
     transform="translate(-114.06344,-293.37888)"><g
       id="g2"><path
         d="m 483.32249,338.51352 -0.0341,-40.87964 -110.11647,0.32653 -2.17917,121.13811 -0.85973,23.34347 -1.25506,10.3768 c -0.20213,1.67122 -3.27619,5.40928 -21.43319,31.72028 -22.351,32.39005 -23.954,34.96505 -23.954,38.47405 0,2.27 0.6,3.775 1.75,4.386 2.115,1.123 34.695,11.497 45.421,14.462 5.775,1.596 8.353,1.88 10.431,1.149 2.866,-1.008 7.551,-7.091 17.309,-22.471 2.967,-4.675 9.88,-15.587 15.363,-24.25 5.483,-8.66305 10.559,-15.75005 11.281,-15.75005 1.935,0 7.91,7.709 11.266,14.53505 8.487,17.263 8.2,40.869 -0.71,58.403 l -2.95525,6.253 34.64201,-0.47044 -0.91333,-149.86505 c 0.0416,-7.0556 1.84793,-8.78204 3.4918,-16.12011 0.69485,-3.10174 0.47763,-6.74936 1.78057,-10.10252 0.82736,-2.12925 1.9136,-3.07054 2.61428,-4.92955 1.66858,-4.42699 2.34711,-8.33368 3.94668,-11.22231 2.04183,-3.68727 1.50217,-6.27756 3.09267,-9.03112 0,0 6.93467,-15.73661 6.92686,-16.07255 z m -16.18102,229.60401 -43.16251,0.0859 -7.33214,8.75001 c -4.11152,4.90658 -9.95505,8.77874 -14.92069,11.53315 -6.91171,3.83387 -12.46677,5.63618 -22.04988,8.38984 -14.05299,4.03806 -15.558,4.19314 -25.46,4.24714 l -9.97814,0.05 -21.63672,31.88049 c -11.3412,16.71062 -21.89772,32.226 -22.21672,33.059 l 171.95894,1.23113"
         stroke="none"
         fill="#000000"
         fill-rule="evenodd"
         id="path1-8-2"
         style="opacity:1;fill:#1b7895;fill-opacity:1;stroke:#000000;stroke-width:0;stroke-dasharray:none;stroke-opacity:1" /><path
         d="m 532.4239,471.32289 c 1.677,-5.285 8.362,-3.68 10.255,2.463 0.557,1.807 6.097,30.622 12.31,64.035 6.213,33.413 11.544,60.75 11.848,60.75 0.303,0 1.363,-6.187 2.354,-13.75 7.345,-56.049 8.686,-66.006 9.155,-67.985 0.608,-2.568 4.972,-4.087 7.378,-2.569 0.863,0.544 5.512,12.168 10.329,25.831 4.818,13.663 9.105,25.165 9.526,25.562 0.421,0.396 33.841,1.209 74.266,1.805 40.425,0.597 90.676,1.375 111.669,1.729 l 38.168,0.644 0.712,-4.748 c 1.148,-7.653 -0.198,-28.227 -2.43,-37.154 -9.603,-38.405 -41.481,-71.07401 -81.648,-83.67401 -15.163,-4.757 -22.129,-5.691 -42.429,-5.691 h -19.042 l -0.015,-21.75 c -0.018,-24.939 -1.027,-30.768 -8.131,-46.967 -10.39,-23.689 -25.84512,-40.45684 -44.139,-55.373 -10.25755,-8.36363 -22.59546,-14.62472 -35.39521,-17.99136 -13.17185,-3.46451 -27.37662,-3.98934 -40.81979,-1.80264 -16.43143,2.67278 -33.063,8.832 -46.623,17.903 -3.507,2.346 -11.46716,8.21726 -17.10916,13.91426 -5.643,5.696 -8.67284,10.10628 -11.22315,14.37884 -10.19849,17.08562 -18.38254,30.68288 -22.13614,50.53835 -1.89185,10.00735 -1.75202,22.77048 -1.76781,32.79922 l -0.21277,135.19317 57.86617,-0.91366 m 21.80886,-60.92617 c -0.057,0.276 -3.213,15.892 -7.014,34.702 -3.802,18.809 -7.16,34.6 -7.463,35.09 l -65.32666,0.77632 0.18529,99.12307 183.01537,0.95461 77,0.651 11.5,-2.281 c 46.648,-9.254 81.828,-38.045 96.419,-78.907 1.451,-4.064 2.437,-7.59 2.191,-7.836 -0.449,-0.448 -42.758,-1.3 -162.343,-3.269 -35.328,-0.581 -64.899,-1.312 -65.713,-1.625 -1.742,-0.668 -3.281,-4.57 -13.123,-33.275 -1.048,-3.054 -0.858,-4.263 -9.34,59.66 -4.204,31.682 -5.052,34.607 -9.872,34.043 -1.649,-0.192 -3.12,-1.258 -3.88,-2.81 -0.673,-1.375 -5.99596,-28.37501 -11.828,-60"
         stroke="none"
         fill="#000000"
         fill-rule="evenodd"
         id="path1"
         style="opacity:1;fill:#bc1823;fill-opacity:1;stroke-width:0;stroke-dasharray:none" /><path
         d="m 375.93866,297.8505 -23.35863,0.0472 -171.65259,263.92339 103.87075,-1.37731 -5.22576,-6.57169 c -15.932,-32.48 1.52,-74.23905 38.891,-93.05805 7.508,-3.781 20.548,-7.652 29.047,-8.624 6.587,-0.753 19.10272,-0.78943 21.43772,0.65357 1.29253,-1.99053 2.20285,-3.96979 3.47463,-5.84648 1.22096,-1.8017 2.85133,-3.4446 3.97708,-5.17828 z m -201.99106,273.42891 -2.25816,4.39263 c -0.982,1.375 -6.912,10.375 -13.178,20 -13.86,21.28791 -21.444,32.91491 -34.187,52.40291 -5.359,8.196 -9.977,15.509 -10.261,16.25 l 112.466,1.347 30.36599,-45.71 c 16.701,-25.14091 32.49934,-48.65669 32.93934,-49.36569 0.859,-1.386 -6.13916,-0.82056 -80.16615,0.28144"
         stroke="none"
         fill="#000000"
         fill-rule="evenodd"
         id="path1-8-1"
         style="opacity:1;fill:#0d566d;fill-opacity:1;stroke-width:0;stroke-dasharray:none" /></g></g></svg>
