<?xml version="1.0" encoding="UTF-8" standalone="no"?>
<!-- Created with Inkscape (http://www.inkscape.org/) -->

<svg
   version="1.1"
   id="svg1"
   width="1641.0551"
   height="375.49203"
   viewBox="0 0 1641.0551 375.49203"
   xml:space="preserve"
   xmlns="http://www.w3.org/2000/svg"
   xmlns:svg="http://www.w3.org/2000/svg"><defs
     id="defs1" /><g
     id="g1"
     transform="translate(-114.06344,-293.37888)"><path
       d="m 483.32249,338.51352 -0.0341,-40.87964 -110.11647,0.32653 -2.17917,121.13811 -0.85973,23.34347 -1.25506,10.3768 c -0.20213,1.67122 -3.27619,5.40928 -21.43319,31.72028 -22.351,32.39005 -23.954,34.96505 -23.954,38.47405 0,2.27 0.6,3.775 1.75,4.386 2.115,1.123 34.695,11.497 45.421,14.462 5.775,1.596 8.353,1.88 10.431,1.149 2.866,-1.008 7.551,-7.091 17.309,-22.471 2.967,-4.675 9.88,-15.587 15.363,-24.25 5.483,-8.66305 10.559,-15.75005 11.281,-15.75005 1.935,0 7.91,7.709 11.266,14.53505 8.487,17.263 8.2,40.869 -0.71,58.403 l -2.95525,6.253 34.64201,-0.47044 -0.91333,-149.86505 c 0.0416,-7.0556 1.84793,-8.78204 3.4918,-16.12011 0.69485,-3.10174 0.47763,-6.74936 1.78057,-10.10252 0.82736,-2.12925 1.9136,-3.07054 2.61428,-4.92955 1.66858,-4.42699 2.34711,-8.33368 3.94668,-11.22231 2.04183,-3.68727 1.50217,-6.27756 3.09267,-9.03112 0,0 6.93467,-15.73661 6.92686,-16.07255 z m -16.18102,229.60401 -43.16251,0.0859 -7.33214,8.75001 c -4.11152,4.90658 -9.95505,8.77874 -14.92069,11.53315 -6.91171,3.83387 -12.46677,5.63618 -22.04988,8.38984 -14.05299,4.03806 -15.558,4.19314 -25.46,4.24714 l -9.97814,0.05 -21.63672,31.88049 c -11.3412,16.71062 -21.89772,32.226 -22.21672,33.059 l 171.95894,1.23113"
       stroke="none"
       fill="#000000"
       fill-rule="evenodd"
       id="path1-8-2"
       style="opacity:1;fill:#1b7895;fill-opacity:1;stroke:#000000;stroke-width:0;stroke-dasharray:none;stroke-opacity:1" /><path
       d="m 532.4239,471.32289 c 1.677,-5.285 8.362,-3.68 10.255,2.463 0.557,1.807 6.097,30.622 12.31,64.035 6.213,33.413 11.544,60.75 11.848,60.75 0.303,0 1.363,-6.187 2.354,-13.75 7.345,-56.049 8.686,-66.006 9.155,-67.985 0.608,-2.568 4.972,-4.087 7.378,-2.569 0.863,0.544 5.512,12.168 10.329,25.831 4.818,13.663 9.105,25.165 9.526,25.562 0.421,0.396 33.841,1.209 74.266,1.805 40.425,0.597 90.676,1.375 111.669,1.729 l 38.168,0.644 0.712,-4.748 c 1.148,-7.653 -0.198,-28.227 -2.43,-37.154 -9.603,-38.405 -41.481,-71.07401 -81.648,-83.67401 -15.163,-4.757 -22.129,-5.691 -42.429,-5.691 h -19.042 l -0.015,-21.75 c -0.018,-24.939 -1.027,-30.768 -8.131,-46.967 -10.39,-23.689 -25.84512,-40.45684 -44.139,-55.373 -10.25755,-8.36363 -22.59546,-14.62472 -35.39521,-17.99136 -13.17185,-3.46451 -27.37662,-3.98934 -40.81979,-1.80264 -16.43143,2.67278 -33.063,8.832 -46.623,17.903 -3.507,2.346 -11.46716,8.21726 -17.10916,13.91426 -5.643,5.696 -8.67284,10.10628 -11.22315,14.37884 -10.19849,17.08562 -18.38254,30.68288 -22.13614,50.53835 -1.89185,10.00735 -1.75202,22.77048 -1.76781,32.79922 l -0.21277,135.19317 57.86617,-0.91366 m 21.80886,-60.92617 c -0.057,0.276 -3.213,15.892 -7.014,34.702 -3.802,18.809 -7.16,34.6 -7.463,35.09 l -65.32666,0.77632 0.18529,99.12307 183.01537,0.95461 77,0.651 11.5,-2.281 c 46.648,-9.254 81.828,-38.045 96.419,-78.907 1.451,-4.064 2.437,-7.59 2.191,-7.836 -0.449,-0.448 -42.758,-1.3 -162.343,-3.269 -35.328,-0.581 -64.899,-1.312 -65.713,-1.625 -1.742,-0.668 -3.281,-4.57 -13.123,-33.275 -1.048,-3.054 -0.858,-4.263 -9.34,59.66 -4.204,31.682 -5.052,34.607 -9.872,34.043 -1.649,-0.192 -3.12,-1.258 -3.88,-2.81 -0.673,-1.375 -5.99596,-28.37501 -11.828,-60"
       stroke="none"
       fill="#000000"
       fill-rule="evenodd"
       id="path1"
       style="opacity:1;fill:#bc1823;fill-opacity:1;stroke-width:0;stroke-dasharray:none" /><path
       d="m 375.93866,297.8505 -23.35863,0.0472 -171.65259,263.92339 103.87075,-1.37731 -5.22576,-6.57169 c -15.932,-32.48 1.52,-74.23905 38.891,-93.05805 7.508,-3.781 20.548,-7.652 29.047,-8.624 6.587,-0.753 19.10272,-0.78943 21.43772,0.65357 1.29253,-1.99053 2.20285,-3.96979 3.47463,-5.84648 1.22096,-1.8017 2.85133,-3.4446 3.97708,-5.17828 z m -201.99106,273.42891 -2.25816,4.39263 c -0.982,1.375 -6.912,10.375 -13.178,20 -13.86,21.28791 -21.444,32.91491 -34.187,52.40291 -5.359,8.196 -9.977,15.509 -10.261,16.25 l 112.466,1.347 30.36599,-45.71 c 16.701,-25.14091 32.49934,-48.65669 32.93934,-49.36569 0.859,-1.386 -6.13916,-0.82056 -80.16615,0.28144"
       stroke="none"
       fill="#000000"
       fill-rule="evenodd"
       id="path1-8-1"
       style="opacity:1;fill:#0d566d;fill-opacity:1;stroke-width:0;stroke-dasharray:none" /><path
       d="m 895.44873,373.9649 c -14.52,35.337 -28.776,69.988 -31.68,77 l -5.281,12.75 8.198,-0.019 8.198,-0.02 7.517,-19.23 7.517,-19.231 32.132,-0.264 32.13197,-0.263 7.786,19.513 7.785,19.514 h 7.923 c 7.118,0 7.858,-0.178 7.292,-1.75 -2.778,-7.709 -62.20197,-152.21 -62.60197,-152.228 -0.285,-0.012 -12.398,28.891 -26.917,64.228 m 770.00007,0 c -14.52,35.337 -28.776,69.988 -31.68,77 l -5.281,12.75 8.198,-0.019 8.198,-0.02 7.517,-19.23 7.517,-19.231 32.132,-0.264 32.132,-0.263 7.786,19.513 7.785,19.514 h 7.923 c 7.118,0 7.858,-0.178 7.292,-1.75 -2.778,-7.709 -62.202,-152.21 -62.602,-152.228 -0.285,-0.012 -12.398,28.891 -26.917,64.228 m -640.065,17.25 v 72.5 h 33.5 33.5 v -7.5 -7.5 h -26 -26 v -65 -65 h -7.5 -7.5 v 72.5 m 108,0 v 72.5 h 25.912 c 18.408,0 28.093,-0.417 33.442,-1.441 25.681,-4.913 39.68,-25.331 34.213,-49.901 -2.844,-12.787 -10.748,-22.247 -22.988,-27.514 l -2.922,-1.257 3.056,-1.859 c 3.531,-2.147 7.088,-6.624 10.352,-13.028 3.402,-6.675 3.874,-19.519 0.998,-27.147 -2.75,-7.293 -8.774,-14.075 -15.366,-17.3 -9.238,-4.52 -16.969,-5.517 -42.947,-5.536 l -23.75,-0.017 v 72.5 m 137,0 v 72.5 h 43 43 v -7 -7 h -35.5 -35.5 v -25.487 -25.487 l 34.25,-0.263 34.25,-0.263 v -7 -7 l -34.25,-0.263 -34.25,-0.263 v -25.487 -25.487 h 35.5 35.5 v -7 -7 h -43 -43 v 72.5 m 139,0 v 72.5 h 7.5 7.5 v -28.5 -28.5 h 8.89 8.889 l 21.186,28.5 21.186,28.5 h 10.008 10.007 l -6.824,-8.75 c -3.753,-4.812 -13.685,-17.525 -22.072,-28.25 -8.386,-10.725 -15.252,-19.775 -15.259,-20.111 -0.01,-0.336 2.3,-0.884 5.124,-1.219 12.198,-1.444 26.26,-11.633 31.918,-23.127 12.763,-25.923 -2.312,-56.425 -30.852,-62.428 -3.113,-0.655 -16.007,-1.115 -31.25,-1.115 h -25.951 v 72.5 m 126,-66 v 6.5 h 17.5 17.5 v 66 66 h 7.5 7.5 v -66 -66 h 17.5 17.5 v -6.5 -6.5 h -42.5 -42.5 v 6.5 m -347.069,9.89 c 10.668,3.97 14.702,10.525 13.845,22.501 -0.608,8.488 -4.011,13.97 -10.776,17.357 -4.119,2.061 -6.129,2.278 -23.75,2.561 l -19.25,0.31 v -22.684 -22.683 l 17.75,0.495 c 13.034,0.363 18.927,0.933 22.181,2.143 m 282.069,0.213 c 6.623,3.062 10.571,6.82 13.539,12.886 7.086,14.484 2.343,31.739 -10.991,39.99 l -4.884,3.021 -21.832,0.32 -21.832,0.32 v -29.657 -29.658 l 20.75,0.348 c 18.465,0.31 21.245,0.578 25.25,2.43 m -535.30107,40.666 c 6.709,17.177 12.49497,32.019 12.85697,32.981 0.616,1.639 -1.001,1.75 -25.44897,1.75 -14.359,0 -26.114,-0.337 -26.123,-0.75 -0.028,-1.332 25.433,-65.251 25.984,-65.231 0.292,0.011 6.021,14.073 12.731,31.25 m 770.00007,0 c 6.709,17.177 12.495,32.019 12.857,32.981 0.616,1.639 -1.001,1.75 -25.449,1.75 -14.359,0 -26.114,-0.337 -26.123,-0.75 -0.028,-1.332 25.433,-65.251 25.984,-65.231 0.292,0.011 6.021,14.073 12.731,31.25 m -508.929,19.651 c 6.861,3.051 14.461,11.262 16.212,17.515 1.58,5.643 0.876,14.973 -1.483,19.653 -2.32,4.604 -8.218,10.678 -12.531,12.906 -5.729,2.959 -14.261,4.006 -32.652,4.006 h -17.316 v -28.599 -28.6 l 21.25,0.388 c 19.657,0.358 21.645,0.563 26.52,2.731 m -22.705,180.33 c -14.52,35.337 -28.776,69.987 -31.68,77 l -5.281,12.75 8.198,-0.019 8.198,-0.02 7.517,-19.23 7.517,-19.231 32.132,-0.264 32.132,-0.263 7.786,19.513 7.785,19.514 h 7.923 c 7.118,0 7.858,-0.178 7.292,-1.75 -2.778,-7.709 -62.202,-152.21 -62.602,-152.228 -0.285,-0.012 -12.398,28.891 -26.917,64.228 m -312.06507,17.25 v 72.5 h 7.5 7.5 v -32.5 -32.5 h 33 32.99997 v 32.5 32.5 h 7.5 7.5 v -72.5 -72.5 h -7.5 -7.5 v 32.5 32.5 h -32.99997 -33 v -32.5 -32.5 h -7.5 -7.5 v 72.5 m 149.99997,0 v 72.5 h 43.0001 43 v -7 -7 h -36 -36 v -25.487 -25.487 l 34.75,-0.263 34.75,-0.263 v -7 -7 l -34.75,-0.263 -34.75,-0.263 v -25.487 -25.487 h 36 36 v -7 -7 h -43 -43.0001 v 72.5 m 292.0001,0 v 72.5 h 7.5 7.5 v -28.5 -28.5 h 8.773 8.774 l 21.191,28.5 21.192,28.5 h 10.026 10.026 l -18.182,-23.25 c -10.001,-12.788 -19.897,-25.428 -21.991,-28.09 -2.095,-2.662 -3.809,-5.187 -3.809,-5.611 0,-0.424 2.311,-1.044 5.135,-1.379 12.628,-1.495 26.198,-11.747 32.02,-24.188 11.849,-25.32 -1.997,-53.736 -29.697,-60.951 -4.557,-1.187 -11.787,-1.531 -32.168,-1.531 h -26.29 v 72.5 m 126,-66.024 v 6.477 l 17.25,0.273 17.25,0.274 0.257,65.794 0.257,65.793 7.243,-0.293 7.243,-0.294 0.257,-65.75 0.257,-65.75 h 17.493 17.493 v -6.5 -6.5 h -42.5 -42.5 v 6.476 m -70.033,8.61 c 15.3,3.282 24.752,19.751 20.612,35.912 -2.589,10.105 -9.301,17.673 -18.478,20.832 -2.15,0.74 -10.695,1.17 -23.25,1.17 h -19.851 v -29.5 -29.5 h 17.951 c 9.873,0 20.23,0.489 23.016,1.086 m -146.268,42.183 c 6.709,17.177 12.495,32.019 12.857,32.981 0.616,1.639 -1.001,1.75 -25.449,1.75 -14.359,0 -26.114,-0.337 -26.123,-0.75 -0.028,-1.332 25.433,-65.251 25.984,-65.231 0.292,0.011 6.021,14.073 12.731,31.25"
       stroke="none"
       fill="#000000"
       fill-rule="evenodd"
       id="path1-1"
       style="fill:#000000;fill-opacity:1" /></g></svg>
